# xmcd CD database file
#
# Track frame offsets:
#	150
#	18530
#	31375
#	46065
#	63817
#	79090
#	97235
#	106987
#	120820
#	139797
#	148527
#	165567
#	184702
#	205752
#
# Disc length: 3096 seconds
#
# Revision: 0
# Processed by: cddbd v1.5.1PL0 Copyright (c) Steve Scherf et al.
# Submitted via: CDex 1.51
#
DISCID=b20c160e
DTITLE=Tim Burgess - I Believe
DYEAR=2004
DGENRE=Rock and Roll
TTITLE0=I Believe In The Spirit
TTITLE1=Held In Straps
TTITLE2=Only A Boy
TTITLE3=We All Need Love
TTITLE4=Oh My Corazon
TTITLE5=Be My Baby
TTITLE6=Years Ago
TTITLE7=Say Yes
TTITLE8=Love To Spend The Night
TTITLE9=Po' Boy Soul
TTITLE10=All I Ever Do
TTITLE11=Who The Cap Fit
TTITLE12=Years Ago [Xfm Session]
TTITLE13=データ
EXTD=YEAR: 2004
EXTT0=
EXTT1=
EXTT2=
EXTT3=
EXTT4=
EXTT5=
EXTT6=
EXTT7=
EXTT8=
EXTT9=
EXTT10=
EXTT11=
EXTT12=
EXTT13=
PLAYORDER=
